<?xml version="1.0" encoding="UTF-8" standalone="no"?>
<svg
   viewBox="0 0 16 16"
   version="1.1"
   id="svg1"
   sodipodi:docname="preferences-activities.svg"
   inkscape:version="1.4.3 (0d15f75042, 2025-12-25)"
   xmlns:inkscape="http://www.inkscape.org/namespaces/inkscape"
   xmlns:sodipodi="http://sodipodi.sourceforge.net/DTD/sodipodi-0.dtd"
   xmlns="http://www.w3.org/2000/svg"
   xmlns:svg="http://www.w3.org/2000/svg">
  <sodipodi:namedview
     id="namedview1"
     pagecolor="#ffffff"
     bordercolor="#000000"
     borderopacity="0.25"
     inkscape:showpageshadow="2"
     inkscape:pageopacity="0.0"
     inkscape:pagecheckerboard="0"
     inkscape:deskcolor="#d1d1d1"
     inkscape:zoom="51.4375"
     inkscape:cx="8"
     inkscape:cy="8"
     inkscape:window-width="1876"
     inkscape:window-height="1032"
     inkscape:window-x="0"
     inkscape:window-y="0"
     inkscape:window-maximized="1"
     inkscape:current-layer="svg1" />
  <defs
     id="defs3051">
    <style
       type="text/css"
       id="current-color-scheme">
      .ColorScheme-Text {
        color:#232629;
      }
      </style>
  </defs>
  <path
     style="fill:#fcfcfc;fill-opacity:1;stroke:none"
     d="M 3.5 6 A 1.5 1.5 0 0 0 2 7.5 A 1.5 1.5 0 0 0 3.5 9 A 1.5 1.5 0 0 0 5 7.5 A 1.5 1.5 0 0 0 3.5 6 z M 7.5039062 6 A 1.5 1.5 0 0 0 6.0039062 7.5 A 1.5 1.5 0 0 0 7.5039062 9 A 1.5 1.5 0 0 0 9.0039062 7.5 A 1.5 1.5 0 0 0 7.5039062 6 z M 11.503906 6 A 1.5 1.5 0 0 0 10.003906 7.5 A 1.5 1.5 0 0 0 11.503906 9 A 1.5 1.5 0 0 0 13.003906 7.5 A 1.5 1.5 0 0 0 11.503906 6 z M 3.5 7 A 0.5 0.5 0 0 1 4 7.5 A 0.5 0.5 0 0 1 3.5 8 A 0.5 0.5 0 0 1 3 7.5 A 0.5 0.5 0 0 1 3.5 7 z M 7.5039062 7 A 0.5 0.5 0 0 1 8.0039062 7.5 A 0.5 0.5 0 0 1 7.5039062 8 A 0.5 0.5 0 0 1 7.0039062 7.5 A 0.5 0.5 0 0 1 7.5039062 7 z M 11.503906 7 A 0.5 0.5 0 0 1 12.003906 7.5 A 0.5 0.5 0 0 1 11.503906 8 A 0.5 0.5 0 0 1 11.003906 7.5 A 0.5 0.5 0 0 1 11.503906 7 z "
     class="ColorScheme-Text"
     id="path1" />
</svg>
