<?xml version="1.0" encoding="UTF-8" standalone="no"?>
<svg
   viewBox="0 0 24 24"
   version="1.1"
   id="svg1"
   sodipodi:docname="preferences-activities.svg"
   inkscape:version="1.4.3 (0d15f75042, 2025-12-25)"
   xmlns:inkscape="http://www.inkscape.org/namespaces/inkscape"
   xmlns:sodipodi="http://sodipodi.sourceforge.net/DTD/sodipodi-0.dtd"
   xmlns="http://www.w3.org/2000/svg"
   xmlns:svg="http://www.w3.org/2000/svg">
  <sodipodi:namedview
     id="namedview1"
     pagecolor="#ffffff"
     bordercolor="#000000"
     borderopacity="0.25"
     inkscape:showpageshadow="2"
     inkscape:pageopacity="0.0"
     inkscape:pagecheckerboard="0"
     inkscape:deskcolor="#d1d1d1"
     inkscape:zoom="34.291667"
     inkscape:cx="11.985419"
     inkscape:cy="12"
     inkscape:window-width="1876"
     inkscape:window-height="1032"
     inkscape:window-x="0"
     inkscape:window-y="0"
     inkscape:window-maximized="1"
     inkscape:current-layer="svg1" />
  <defs
     id="defs3051">
    <style
       type="text/css"
       id="current-color-scheme">
      .ColorScheme-Text {
        color:#232629;
      }
      </style>
  </defs>
  <path
     style="fill:#fcfcfc;fill-opacity:1;stroke:none"
     d="M 6 10 C 4.8919999 10 4 10.892 4 12 C 4 13.108 4.8919999 14 6 14 C 7.1080001 14 8 13.108 8 12 C 8 10.892 7.1080001 10 6 10 z M 12 10 C 10.892 10 10 10.892 10 12 C 10 13.108 10.892 14 12 14 C 13.108 14 14 13.108 14 12 C 14 10.892 13.108 10 12 10 z M 18 10 C 16.892 10 16 10.892 16 12 C 16 13.108 16.892 14 18 14 C 19.108 14 20 13.108 20 12 C 20 10.892 19.108 10 18 10 z M 6 11 C 6.5540001 11 7 11.446 7 12 C 7 12.554 6.5540001 13 6 13 C 5.4459999 13 5 12.554 5 12 C 5 11.446 5.4459999 11 6 11 z M 12 11 C 12.554 11 13 11.446 13 12 C 13 12.554 12.554 13 12 13 C 11.446 13 11 12.554 11 12 C 11 11.446 11.446 11 12 11 z M 18 11 C 18.554 11 19 11.446 19 12 C 19 12.554 18.554 13 18 13 C 17.446 13 17 12.554 17 12 C 17 11.446 17.446 11 18 11 z "
     class="ColorScheme-Text"
     id="path1" />
</svg>
